<svg xmlns="http://www.w3.org/2000/svg" width="1000" height="240" viewBox="0 0 1000 240" role="img" aria-label="munim — who's spending what, across every AI tool">
  <defs>
    <linearGradient id="triad" x1="0" y1="0" x2="1" y2="0">
      <stop offset="0" stop-color="#22d3ee"/>
      <stop offset="0.5" stop-color="#a78bfa"/>
      <stop offset="1" stop-color="#fbbf24"/>
    </linearGradient>
  </defs>
  <rect width="1000" height="240" rx="24" fill="#0d1320"/>
  <svg x="56" y="52" width="136" height="136" viewBox="0 0 96 96">
    <rect x="4" y="4" width="88" height="88" rx="21" fill="#131b2e"/>
    <rect x="27" y="58" width="12" height="6" rx="3" fill="#fbbf24"/>
    <rect x="27" y="49.5" width="12" height="6" rx="3" fill="#fbbf24"/>
    <rect x="42" y="58" width="12" height="6" rx="3" fill="#fbbf24"/>
    <rect x="42" y="49.5" width="12" height="6" rx="3" fill="#fbbf24"/>
    <rect x="42" y="41" width="12" height="6" rx="3" fill="#fbbf24"/>
    <rect x="57" y="58" width="12" height="6" rx="3" fill="#fbbf24"/>
    <rect x="57" y="49.5" width="12" height="6" rx="3" fill="#fbbf24"/>
    <rect x="57" y="41" width="12" height="6" rx="3" fill="#fbbf24"/>
    <rect x="57" y="32.5" width="12" height="6" rx="3" fill="#f1f5f9"/>
  </svg>
  <text x="228" y="116" font-family="ui-monospace, SFMono-Regular, Menlo, Consolas, monospace" font-size="66" font-weight="600" fill="#e8eef7">munim</text>
  <text x="231" y="156" font-family="ui-monospace, SFMono-Regular, Menlo, Consolas, monospace" font-size="20" fill="#8fa0b8">who's spending what, across every AI tool</text>
  <rect x="228" y="182" width="716" height="6" rx="3" fill="url(#triad)"/>
</svg>
